<?xml version="1.0" encoding="utf-8" standalone="no"?>
<!DOCTYPE svg PUBLIC "-//W3C//DTD SVG 1.1//EN"
  "http://www.w3.org/Graphics/SVG/1.1/DTD/svg11.dtd">
<!-- Created with matplotlib (http://matplotlib.org/) -->
<svg height="431pt" version="1.1" viewBox="0 0 844 431" width="844pt" xmlns="http://www.w3.org/2000/svg" xmlns:xlink="http://www.w3.org/1999/xlink">
 <defs>
  <style type="text/css">
*{stroke-linecap:butt;stroke-linejoin:round;}
  </style>
 </defs>
 <g id="figure_1">
  <g id="patch_1">
   <path d="
M0 431.1
L844.2 431.1
L844.2 0
L0 0
z
" style="fill:#ffffff;"/>
  </g>
  <g id="axes_1">
   <g id="patch_2">
    <path d="
M105.525 387.99
L759.78 387.99
L759.78 43.11
L105.525 43.11
z
" style="fill:#ffffff;"/>
   </g>
   <g id="LineCollection_1">
    <defs>
     <path d="
M170.95 -335.687
L170.95 -344.243" id="C0_0_e997f40437"/>
     <path d="
M236.376 -312.42
L236.376 -320.872" id="C0_1_41dabb4ed8"/>
     <path d="
M301.801 -286.561
L301.801 -295.314" id="C0_2_299da56c8f"/>
     <path d="
M367.227 -259.178
L367.227 -267.764" id="C0_3_dd8fb41039"/>
     <path d="
M432.652 -230.042
L432.652 -239.277" id="C0_4_0098181ed0"/>
     <path d="
M498.078 -197.425
L498.078 -206.9" id="C0_5_057fd107d2"/>
     <path d="
M563.504 -162.413
L563.504 -171.829" id="C0_6_d0e035f3ff"/>
     <path d="
M628.929 -123.756
L628.929 -133.426" id="C0_7_7dfa5f15fd"/>
     <path d="
M694.355 -85.0935
L694.355 -92.998" id="C0_8_9e3b45160c"/>
     <path d="
M759.78 -62.9871
L759.78 -69.672" id="C0_9_379fb0468d"/>
    </defs>
    <g clip-path="url(#p44e78e75ad)">
     <use style="fill:none;stroke:#0000ff;" x="0.0" xlink:href="#C0_0_e997f40437" y="431.1"/>
    </g>
    <g clip-path="url(#p44e78e75ad)">
     <use style="fill:none;stroke:#0000ff;" x="0.0" xlink:href="#C0_1_41dabb4ed8" y="431.1"/>
    </g>
    <g clip-path="url(#p44e78e75ad)">
     <use style="fill:none;stroke:#0000ff;" x="0.0" xlink:href="#C0_2_299da56c8f" y="431.1"/>
    </g>
    <g clip-path="url(#p44e78e75ad)">
     <use style="fill:none;stroke:#0000ff;" x="0.0" xlink:href="#C0_3_dd8fb41039" y="431.1"/>
    </g>
    <g clip-path="url(#p44e78e75ad)">
     <use style="fill:none;stroke:#0000ff;" x="0.0" xlink:href="#C0_4_0098181ed0" y="431.1"/>
    </g>
    <g clip-path="url(#p44e78e75ad)">
     <use style="fill:none;stroke:#0000ff;" x="0.0" xlink:href="#C0_5_057fd107d2" y="431.1"/>
    </g>
    <g clip-path="url(#p44e78e75ad)">
     <use style="fill:none;stroke:#0000ff;" x="0.0" xlink:href="#C0_6_d0e035f3ff" y="431.1"/>
    </g>
    <g clip-path="url(#p44e78e75ad)">
     <use style="fill:none;stroke:#0000ff;" x="0.0" xlink:href="#C0_7_7dfa5f15fd" y="431.1"/>
    </g>
    <g clip-path="url(#p44e78e75ad)">
     <use style="fill:none;stroke:#0000ff;" x="0.0" xlink:href="#C0_8_9e3b45160c" y="431.1"/>
    </g>
    <g clip-path="url(#p44e78e75ad)">
     <use style="fill:none;stroke:#0000ff;" x="0.0" xlink:href="#C0_9_379fb0468d" y="431.1"/>
    </g>
   </g>
   <g id="LineCollection_2">
    <defs>
     <path d="
M170.95 -79.1604
L170.95 -92.7075" id="C1_0_b3e90f12fe"/>
     <path d="
M236.376 -78.9186
L236.376 -88.0424" id="C1_1_9bf7514800"/>
     <path d="
M301.801 -77.3699
L301.801 -86.4908" id="C1_2_f6cbb0fd20"/>
     <path d="
M367.227 -82.9159
L367.227 -96.2587" id="C1_3_00eeeff2e8"/>
     <path d="
M432.652 -78.5397
L432.652 -89.4347" id="C1_4_4b79ff0e20"/>
     <path d="
M498.078 -83.4579
L498.078 -94.9385" id="C1_5_7afff47591"/>
     <path d="
M563.504 -81.4082
L563.504 -92.5016" id="C1_6_1f9d83300d"/>
     <path d="
M628.929 -75.345
L628.929 -86.4927" id="C1_7_f58ba71cfa"/>
     <path d="
M694.355 -73.174
L694.355 -82.2297" id="C1_8_704a746767"/>
     <path d="
M759.78 -72.5663
L759.78 -82.3528" id="C1_9_19c54894d2"/>
    </defs>
    <g clip-path="url(#p44e78e75ad)">
     <use style="fill:none;stroke:#008000;" x="0.0" xlink:href="#C1_0_b3e90f12fe" y="431.1"/>
    </g>
    <g clip-path="url(#p44e78e75ad)">
     <use style="fill:none;stroke:#008000;" x="0.0" xlink:href="#C1_1_9bf7514800" y="431.1"/>
    </g>
    <g clip-path="url(#p44e78e75ad)">
     <use style="fill:none;stroke:#008000;" x="0.0" xlink:href="#C1_2_f6cbb0fd20" y="431.1"/>
    </g>
    <g clip-path="url(#p44e78e75ad)">
     <use style="fill:none;stroke:#008000;" x="0.0" xlink:href="#C1_3_00eeeff2e8" y="431.1"/>
    </g>
    <g clip-path="url(#p44e78e75ad)">
     <use style="fill:none;stroke:#008000;" x="0.0" xlink:href="#C1_4_4b79ff0e20" y="431.1"/>
    </g>
    <g clip-path="url(#p44e78e75ad)">
     <use style="fill:none;stroke:#008000;" x="0.0" xlink:href="#C1_5_7afff47591" y="431.1"/>
    </g>
    <g clip-path="url(#p44e78e75ad)">
     <use style="fill:none;stroke:#008000;" x="0.0" xlink:href="#C1_6_1f9d83300d" y="431.1"/>
    </g>
    <g clip-path="url(#p44e78e75ad)">
     <use style="fill:none;stroke:#008000;" x="0.0" xlink:href="#C1_7_f58ba71cfa" y="431.1"/>
    </g>
    <g clip-path="url(#p44e78e75ad)">
     <use style="fill:none;stroke:#008000;" x="0.0" xlink:href="#C1_8_704a746767" y="431.1"/>
    </g>
    <g clip-path="url(#p44e78e75ad)">
     <use style="fill:none;stroke:#008000;" x="0.0" xlink:href="#C1_9_19c54894d2" y="431.1"/>
    </g>
   </g>
   <g id="line2d_1">
    <defs>
     <path d="
M3 1.83697e-16
L-3 -1.83697e-16" id="m4a5567e584" style="stroke:#0000ff;stroke-width:0.5;"/>
    </defs>
    <g clip-path="url(#p44e78e75ad)">
     <use style="fill:#0000ff;stroke:#0000ff;stroke-width:0.5;" x="170.9505" xlink:href="#m4a5567e584" y="95.4129504791"/>
     <use style="fill:#0000ff;stroke:#0000ff;stroke-width:0.5;" x="236.376" xlink:href="#m4a5567e584" y="118.679545251"/>
     <use style="fill:#0000ff;stroke:#0000ff;stroke-width:0.5;" x="301.8015" xlink:href="#m4a5567e584" y="144.539050053"/>
     <use style="fill:#0000ff;stroke:#0000ff;stroke-width:0.5;" x="367.227" xlink:href="#m4a5567e584" y="171.922480689"/>
     <use style="fill:#0000ff;stroke:#0000ff;stroke-width:0.5;" x="432.6525" xlink:href="#m4a5567e584" y="201.057554215"/>
     <use style="fill:#0000ff;stroke:#0000ff;stroke-width:0.5;" x="498.078" xlink:href="#m4a5567e584" y="233.674904114"/>
     <use style="fill:#0000ff;stroke:#0000ff;stroke-width:0.5;" x="563.5035" xlink:href="#m4a5567e584" y="268.686669823"/>
     <use style="fill:#0000ff;stroke:#0000ff;stroke-width:0.5;" x="628.929" xlink:href="#m4a5567e584" y="307.343557332"/>
     <use style="fill:#0000ff;stroke:#0000ff;stroke-width:0.5;" x="694.3545" xlink:href="#m4a5567e584" y="346.006517562"/>
     <use style="fill:#0000ff;stroke:#0000ff;stroke-width:0.5;" x="759.78" xlink:href="#m4a5567e584" y="368.112933746"/>
    </g>
   </g>
   <g id="line2d_2">
    <g clip-path="url(#p44e78e75ad)">
     <use style="fill:#0000ff;stroke:#0000ff;stroke-width:0.5;" x="170.9505" xlink:href="#m4a5567e584" y="86.8572544999"/>
     <use style="fill:#0000ff;stroke:#0000ff;stroke-width:0.5;" x="236.376" xlink:href="#m4a5567e584" y="110.228370821"/>
     <use style="fill:#0000ff;stroke:#0000ff;stroke-width:0.5;" x="301.8015" xlink:href="#m4a5567e584" y="135.785719734"/>
     <use style="fill:#0000ff;stroke:#0000ff;stroke-width:0.5;" x="367.227" xlink:href="#m4a5567e584" y="163.335946912"/>
     <use style="fill:#0000ff;stroke:#0000ff;stroke-width:0.5;" x="432.6525" xlink:href="#m4a5567e584" y="191.823328676"/>
     <use style="fill:#0000ff;stroke:#0000ff;stroke-width:0.5;" x="498.078" xlink:href="#m4a5567e584" y="224.200462085"/>
     <use style="fill:#0000ff;stroke:#0000ff;stroke-width:0.5;" x="563.5035" xlink:href="#m4a5567e584" y="259.27132041"/>
     <use style="fill:#0000ff;stroke:#0000ff;stroke-width:0.5;" x="628.929" xlink:href="#m4a5567e584" y="297.673648529"/>
     <use style="fill:#0000ff;stroke:#0000ff;stroke-width:0.5;" x="694.3545" xlink:href="#m4a5567e584" y="338.101972378"/>
     <use style="fill:#0000ff;stroke:#0000ff;stroke-width:0.5;" x="759.78" xlink:href="#m4a5567e584" y="361.427971532"/>
    </g>
   </g>
   <g id="line2d_3">
    <path clip-path="url(#p44e78e75ad)" d="
M170.95 91.1351
L236.376 114.454
L301.801 140.162
L367.227 167.629
L432.652 196.44
L498.078 228.938
L563.504 263.979
L628.929 302.509
L694.355 342.054
L759.78 364.77" style="fill:none;stroke:#0000ff;stroke-linecap:square;"/>
   </g>
   <g id="line2d_4">
    <defs>
     <path d="
M3 1.83697e-16
L-3 -1.83697e-16" id="m37ea37557e" style="stroke:#008000;stroke-width:0.5;"/>
    </defs>
    <g clip-path="url(#p44e78e75ad)">
     <use style="fill:#008000;stroke:#008000;stroke-width:0.5;" x="170.9505" xlink:href="#m37ea37557e" y="351.939648796"/>
     <use style="fill:#008000;stroke:#008000;stroke-width:0.5;" x="236.376" xlink:href="#m37ea37557e" y="352.181445284"/>
     <use style="fill:#008000;stroke:#008000;stroke-width:0.5;" x="301.8015" xlink:href="#m37ea37557e" y="353.730062006"/>
     <use style="fill:#008000;stroke:#008000;stroke-width:0.5;" x="367.227" xlink:href="#m37ea37557e" y="348.184073424"/>
     <use style="fill:#008000;stroke:#008000;stroke-width:0.5;" x="432.6525" xlink:href="#m37ea37557e" y="352.560324251"/>
     <use style="fill:#008000;stroke:#008000;stroke-width:0.5;" x="498.078" xlink:href="#m37ea37557e" y="347.642067724"/>
     <use style="fill:#008000;stroke:#008000;stroke-width:0.5;" x="563.5035" xlink:href="#m37ea37557e" y="349.691848329"/>
     <use style="fill:#008000;stroke:#008000;stroke-width:0.5;" x="628.929" xlink:href="#m37ea37557e" y="355.755007407"/>
     <use style="fill:#008000;stroke:#008000;stroke-width:0.5;" x="694.3545" xlink:href="#m37ea37557e" y="357.925950809"/>
     <use style="fill:#008000;stroke:#008000;stroke-width:0.5;" x="759.78" xlink:href="#m37ea37557e" y="358.533671078"/>
    </g>
   </g>
   <g id="line2d_5">
    <g clip-path="url(#p44e78e75ad)">
     <use style="fill:#008000;stroke:#008000;stroke-width:0.5;" x="170.9505" xlink:href="#m37ea37557e" y="338.392467927"/>
     <use style="fill:#008000;stroke:#008000;stroke-width:0.5;" x="236.376" xlink:href="#m37ea37557e" y="343.057581438"/>
     <use style="fill:#008000;stroke:#008000;stroke-width:0.5;" x="301.8015" xlink:href="#m37ea37557e" y="344.609197336"/>
     <use style="fill:#008000;stroke:#008000;stroke-width:0.5;" x="367.227" xlink:href="#m37ea37557e" y="334.841346314"/>
     <use style="fill:#008000;stroke:#008000;stroke-width:0.5;" x="432.6525" xlink:href="#m37ea37557e" y="341.665257883"/>
     <use style="fill:#008000;stroke:#008000;stroke-width:0.5;" x="498.078" xlink:href="#m37ea37557e" y="336.161497953"/>
     <use style="fill:#008000;stroke:#008000;stroke-width:0.5;" x="563.5035" xlink:href="#m37ea37557e" y="338.598428591"/>
     <use style="fill:#008000;stroke:#008000;stroke-width:0.5;" x="628.929" xlink:href="#m37ea37557e" y="344.607270215"/>
     <use style="fill:#008000;stroke:#008000;stroke-width:0.5;" x="694.3545" xlink:href="#m37ea37557e" y="348.870339782"/>
     <use style="fill:#008000;stroke:#008000;stroke-width:0.5;" x="759.78" xlink:href="#m37ea37557e" y="348.747213815"/>
    </g>
   </g>
   <g id="line2d_6">
    <path clip-path="url(#p44e78e75ad)" d="
M170.95 345.166
L236.376 347.62
L301.801 349.17
L367.227 341.513
L432.652 347.113
L498.078 341.902
L563.504 344.145
L628.929 350.181
L694.355 353.398
L759.78 353.64" style="fill:none;stroke:#008000;stroke-linecap:square;"/>
   </g>
   <g id="matplotlib.axis_1">
    <g id="xtick_1">
     <g id="line2d_7">
      <defs>
       <path d="
M0 0
L0 -4" id="mc7db9fdffb" style="stroke:#000000;stroke-width:0.5;"/>
      </defs>
      <g>
       <use style="stroke:#000000;stroke-width:0.5;" x="105.525" xlink:href="#mc7db9fdffb" y="387.99"/>
      </g>
     </g>
     <g id="line2d_8">
      <defs>
       <path d="
M0 0
L0 4" id="m5a7d422ac3" style="stroke:#000000;stroke-width:0.5;"/>
      </defs>
      <g>
       <use style="stroke:#000000;stroke-width:0.5;" x="105.525" xlink:href="#m5a7d422ac3" y="43.11"/>
      </g>
     </g>
     <g id="text_1">
      <!-- 0 -->
      <defs>
       <path d="
M31.7812 66.4062
Q24.1719 66.4062 20.3281 58.9062
Q16.5 51.4219 16.5 36.375
Q16.5 21.3906 20.3281 13.8906
Q24.1719 6.39062 31.7812 6.39062
Q39.4531 6.39062 43.2812 13.8906
Q47.125 21.3906 47.125 36.375
Q47.125 51.4219 43.2812 58.9062
Q39.4531 66.4062 31.7812 66.4062
M31.7812 74.2188
Q44.0469 74.2188 50.5156 64.5156
Q56.9844 54.8281 56.9844 36.375
Q56.9844 17.9688 50.5156 8.26562
Q44.0469 -1.42188 31.7812 -1.42188
Q19.5312 -1.42188 13.0625 8.26562
Q6.59375 17.9688 6.59375 36.375
Q6.59375 54.8281 13.0625 64.5156
Q19.5312 74.2188 31.7812 74.2188" id="BitstreamVeraSans-Roman-30"/>
      </defs>
      <g transform="translate(102.5015625 401.108125)scale(0.12 -0.12)">
       <use xlink:href="#BitstreamVeraSans-Roman-30"/>
      </g>
     </g>
    </g>
    <g id="xtick_2">
     <g id="line2d_9">
      <g>
       <use style="stroke:#000000;stroke-width:0.5;" x="236.376" xlink:href="#mc7db9fdffb" y="387.99"/>
      </g>
     </g>
     <g id="line2d_10">
      <g>
       <use style="stroke:#000000;stroke-width:0.5;" x="236.376" xlink:href="#m5a7d422ac3" y="43.11"/>
      </g>
     </g>
     <g id="text_2">
      <!-- 2 -->
      <defs>
       <path d="
M19.1875 8.29688
L53.6094 8.29688
L53.6094 0
L7.32812 0
L7.32812 8.29688
Q12.9375 14.1094 22.625 23.8906
Q32.3281 33.6875 34.8125 36.5312
Q39.5469 41.8438 41.4219 45.5312
Q43.3125 49.2188 43.3125 52.7812
Q43.3125 58.5938 39.2344 62.25
Q35.1562 65.9219 28.6094 65.9219
Q23.9688 65.9219 18.8125 64.3125
Q13.6719 62.7031 7.8125 59.4219
L7.8125 69.3906
Q13.7656 71.7812 18.9375 73
Q24.125 74.2188 28.4219 74.2188
Q39.75 74.2188 46.4844 68.5469
Q53.2188 62.8906 53.2188 53.4219
Q53.2188 48.9219 51.5312 44.8906
Q49.8594 40.875 45.4062 35.4062
Q44.1875 33.9844 37.6406 27.2188
Q31.1094 20.4531 19.1875 8.29688" id="BitstreamVeraSans-Roman-32"/>
      </defs>
      <g transform="translate(233.599125 401.108125)scale(0.12 -0.12)">
       <use xlink:href="#BitstreamVeraSans-Roman-32"/>
      </g>
     </g>
    </g>
    <g id="xtick_3">
     <g id="line2d_11">
      <g>
       <use style="stroke:#000000;stroke-width:0.5;" x="367.227" xlink:href="#mc7db9fdffb" y="387.99"/>
      </g>
     </g>
     <g id="line2d_12">
      <g>
       <use style="stroke:#000000;stroke-width:0.5;" x="367.227" xlink:href="#m5a7d422ac3" y="43.11"/>
      </g>
     </g>
     <g id="text_3">
      <!-- 4 -->
      <defs>
       <path d="
M37.7969 64.3125
L12.8906 25.3906
L37.7969 25.3906
z

M35.2031 72.9062
L47.6094 72.9062
L47.6094 25.3906
L58.0156 25.3906
L58.0156 17.1875
L47.6094 17.1875
L47.6094 0
L37.7969 0
L37.7969 17.1875
L4.89062 17.1875
L4.89062 26.7031
z
" id="BitstreamVeraSans-Roman-34"/>
      </defs>
      <g transform="translate(364.0395 401.108125)scale(0.12 -0.12)">
       <use xlink:href="#BitstreamVeraSans-Roman-34"/>
      </g>
     </g>
    </g>
    <g id="xtick_4">
     <g id="line2d_13">
      <g>
       <use style="stroke:#000000;stroke-width:0.5;" x="498.078" xlink:href="#mc7db9fdffb" y="387.99"/>
      </g>
     </g>
     <g id="line2d_14">
      <g>
       <use style="stroke:#000000;stroke-width:0.5;" x="498.078" xlink:href="#m5a7d422ac3" y="43.11"/>
      </g>
     </g>
     <g id="text_4">
      <!-- 6 -->
      <defs>
       <path d="
M33.0156 40.375
Q26.375 40.375 22.4844 35.8281
Q18.6094 31.2969 18.6094 23.3906
Q18.6094 15.5312 22.4844 10.9531
Q26.375 6.39062 33.0156 6.39062
Q39.6562 6.39062 43.5312 10.9531
Q47.4062 15.5312 47.4062 23.3906
Q47.4062 31.2969 43.5312 35.8281
Q39.6562 40.375 33.0156 40.375
M52.5938 71.2969
L52.5938 62.3125
Q48.875 64.0625 45.0938 64.9844
Q41.3125 65.9219 37.5938 65.9219
Q27.8281 65.9219 22.6719 59.3281
Q17.5312 52.7344 16.7969 39.4062
Q19.6719 43.6562 24.0156 45.9219
Q28.375 48.1875 33.5938 48.1875
Q44.5781 48.1875 50.9531 41.5156
Q57.3281 34.8594 57.3281 23.3906
Q57.3281 12.1562 50.6875 5.35938
Q44.0469 -1.42188 33.0156 -1.42188
Q20.3594 -1.42188 13.6719 8.26562
Q6.98438 17.9688 6.98438 36.375
Q6.98438 53.6562 15.1875 63.9375
Q23.3906 74.2188 37.2031 74.2188
Q40.9219 74.2188 44.7031 73.4844
Q48.4844 72.75 52.5938 71.2969" id="BitstreamVeraSans-Roman-36"/>
      </defs>
      <g transform="translate(495.057375 401.108125)scale(0.12 -0.12)">
       <use xlink:href="#BitstreamVeraSans-Roman-36"/>
      </g>
     </g>
    </g>
    <g id="xtick_5">
     <g id="line2d_15">
      <g>
       <use style="stroke:#000000;stroke-width:0.5;" x="628.929" xlink:href="#mc7db9fdffb" y="387.99"/>
      </g>
     </g>
     <g id="line2d_16">
      <g>
       <use style="stroke:#000000;stroke-width:0.5;" x="628.929" xlink:href="#m5a7d422ac3" y="43.11"/>
      </g>
     </g>
     <g id="text_5">
      <!-- 8 -->
      <defs>
       <path d="
M31.7812 34.625
Q24.75 34.625 20.7188 30.8594
Q16.7031 27.0938 16.7031 20.5156
Q16.7031 13.9219 20.7188 10.1562
Q24.75 6.39062 31.7812 6.39062
Q38.8125 6.39062 42.8594 10.1719
Q46.9219 13.9688 46.9219 20.5156
Q46.9219 27.0938 42.8906 30.8594
Q38.875 34.625 31.7812 34.625
M21.9219 38.8125
Q15.5781 40.375 12.0312 44.7188
Q8.5 49.0781 8.5 55.3281
Q8.5 64.0625 14.7188 69.1406
Q20.9531 74.2188 31.7812 74.2188
Q42.6719 74.2188 48.875 69.1406
Q55.0781 64.0625 55.0781 55.3281
Q55.0781 49.0781 51.5312 44.7188
Q48 40.375 41.7031 38.8125
Q48.8281 37.1562 52.7969 32.3125
Q56.7812 27.4844 56.7812 20.5156
Q56.7812 9.90625 50.3125 4.23438
Q43.8438 -1.42188 31.7812 -1.42188
Q19.7344 -1.42188 13.25 4.23438
Q6.78125 9.90625 6.78125 20.5156
Q6.78125 27.4844 10.7812 32.3125
Q14.7969 37.1562 21.9219 38.8125
M18.3125 54.3906
Q18.3125 48.7344 21.8438 45.5625
Q25.3906 42.3906 31.7812 42.3906
Q38.1406 42.3906 41.7188 45.5625
Q45.3125 48.7344 45.3125 54.3906
Q45.3125 60.0625 41.7188 63.2344
Q38.1406 66.4062 31.7812 66.4062
Q25.3906 66.4062 21.8438 63.2344
Q18.3125 60.0625 18.3125 54.3906" id="BitstreamVeraSans-Roman-38"/>
      </defs>
      <g transform="translate(625.929 401.108125)scale(0.12 -0.12)">
       <use xlink:href="#BitstreamVeraSans-Roman-38"/>
      </g>
     </g>
    </g>
    <g id="xtick_6">
     <g id="line2d_17">
      <g>
       <use style="stroke:#000000;stroke-width:0.5;" x="759.78" xlink:href="#mc7db9fdffb" y="387.99"/>
      </g>
     </g>
     <g id="line2d_18">
      <g>
       <use style="stroke:#000000;stroke-width:0.5;" x="759.78" xlink:href="#m5a7d422ac3" y="43.11"/>
      </g>
     </g>
     <g id="text_6">
      <!-- 10 -->
      <defs>
       <path d="
M12.4062 8.29688
L28.5156 8.29688
L28.5156 63.9219
L10.9844 60.4062
L10.9844 69.3906
L28.4219 72.9062
L38.2812 72.9062
L38.2812 8.29688
L54.3906 8.29688
L54.3906 0
L12.4062 0
z
" id="BitstreamVeraSans-Roman-31"/>
      </defs>
      <g transform="translate(753.2025 401.108125)scale(0.12 -0.12)">
       <use xlink:href="#BitstreamVeraSans-Roman-31"/>
       <use x="63.623046875" xlink:href="#BitstreamVeraSans-Roman-30"/>
      </g>
     </g>
    </g>
    <g id="text_7">
     <!-- Number of Averaging Colluders -->
     <defs>
      <path d="
M44.2812 53.0781
L44.2812 44.5781
Q40.4844 46.5312 36.375 47.5
Q32.2812 48.4844 27.875 48.4844
Q21.1875 48.4844 17.8438 46.4375
Q14.5 44.3906 14.5 40.2812
Q14.5 37.1562 16.8906 35.375
Q19.2812 33.5938 26.5156 31.9844
L29.5938 31.2969
Q39.1562 29.25 43.1875 25.5156
Q47.2188 21.7812 47.2188 15.0938
Q47.2188 7.46875 41.1875 3.01562
Q35.1562 -1.42188 24.6094 -1.42188
Q20.2188 -1.42188 15.4531 -0.5625
Q10.6875 0.296875 5.42188 2
L5.42188 11.2812
Q10.4062 8.6875 15.2344 7.39062
Q20.0625 6.10938 24.8125 6.10938
Q31.1562 6.10938 34.5625 8.28125
Q37.9844 10.4531 37.9844 14.4062
Q37.9844 18.0625 35.5156 20.0156
Q33.0625 21.9688 24.7031 23.7812
L21.5781 24.5156
Q13.2344 26.2656 9.51562 29.9062
Q5.8125 33.5469 5.8125 39.8906
Q5.8125 47.6094 11.2812 51.7969
Q16.75 56 26.8125 56
Q31.7812 56 36.1719 55.2656
Q40.5781 54.5469 44.2812 53.0781" id="BitstreamVeraSans-Roman-73"/>
      <path d="
M41.1094 46.2969
Q39.5938 47.1719 37.8125 47.5781
Q36.0312 48 33.8906 48
Q26.2656 48 22.1875 43.0469
Q18.1094 38.0938 18.1094 28.8125
L18.1094 0
L9.07812 0
L9.07812 54.6875
L18.1094 54.6875
L18.1094 46.1875
Q20.9531 51.1719 25.4844 53.5781
Q30.0312 56 36.5312 56
Q37.4531 56 38.5781 55.875
Q39.7031 55.7656 41.0625 55.5156
z
" id="BitstreamVeraSans-Roman-72"/>
      <path d="
M48.6875 27.2969
Q48.6875 37.2031 44.6094 42.8438
Q40.5312 48.4844 33.4062 48.4844
Q26.2656 48.4844 22.1875 42.8438
Q18.1094 37.2031 18.1094 27.2969
Q18.1094 17.3906 22.1875 11.75
Q26.2656 6.10938 33.4062 6.10938
Q40.5312 6.10938 44.6094 11.75
Q48.6875 17.3906 48.6875 27.2969
M18.1094 46.3906
Q20.9531 51.2656 25.2656 53.625
Q29.5938 56 35.5938 56
Q45.5625 56 51.7812 48.0938
Q58.0156 40.1875 58.0156 27.2969
Q58.0156 14.4062 51.7812 6.48438
Q45.5625 -1.42188 35.5938 -1.42188
Q29.5938 -1.42188 25.2656 0.953125
Q20.9531 3.32812 18.1094 8.20312
L18.1094 0
L9.07812 0
L9.07812 75.9844
L18.1094 75.9844
z
" id="BitstreamVeraSans-Roman-62"/>
      <path d="
M45.4062 46.3906
L45.4062 75.9844
L54.3906 75.9844
L54.3906 0
L45.4062 0
L45.4062 8.20312
Q42.5781 3.32812 38.25 0.953125
Q33.9375 -1.42188 27.875 -1.42188
Q17.9688 -1.42188 11.7344 6.48438
Q5.51562 14.4062 5.51562 27.2969
Q5.51562 40.1875 11.7344 48.0938
Q17.9688 56 27.875 56
Q33.9375 56 38.25 53.625
Q42.5781 51.2656 45.4062 46.3906
M14.7969 27.2969
Q14.7969 17.3906 18.875 11.75
Q22.9531 6.10938 30.0781 6.10938
Q37.2031 6.10938 41.2969 11.75
Q45.4062 17.3906 45.4062 27.2969
Q45.4062 37.2031 41.2969 42.8438
Q37.2031 48.4844 30.0781 48.4844
Q22.9531 48.4844 18.875 42.8438
Q14.7969 37.2031 14.7969 27.2969" id="BitstreamVeraSans-Roman-64"/>
      <path d="
M56.2031 29.5938
L56.2031 25.2031
L14.8906 25.2031
Q15.4844 15.9219 20.4844 11.0625
Q25.4844 6.20312 34.4219 6.20312
Q39.5938 6.20312 44.4531 7.46875
Q49.3125 8.73438 54.1094 11.2812
L54.1094 2.78125
Q49.2656 0.734375 44.1875 -0.34375
Q39.1094 -1.42188 33.8906 -1.42188
Q20.7969 -1.42188 13.1562 6.1875
Q5.51562 13.8125 5.51562 26.8125
Q5.51562 40.2344 12.7656 48.1094
Q20.0156 56 32.3281 56
Q43.3594 56 49.7812 48.8906
Q56.2031 41.7969 56.2031 29.5938
M47.2188 32.2344
Q47.125 39.5938 43.0938 43.9844
Q39.0625 48.3906 32.4219 48.3906
Q24.9062 48.3906 20.3906 44.1406
Q15.875 39.8906 15.1875 32.1719
z
" id="BitstreamVeraSans-Roman-65"/>
      <path d="
M8.5 21.5781
L8.5 54.6875
L17.4844 54.6875
L17.4844 21.9219
Q17.4844 14.1562 20.5 10.2656
Q23.5312 6.39062 29.5938 6.39062
Q36.8594 6.39062 41.0781 11.0312
Q45.3125 15.6719 45.3125 23.6875
L45.3125 54.6875
L54.2969 54.6875
L54.2969 0
L45.3125 0
L45.3125 8.40625
Q42.0469 3.42188 37.7188 1
Q33.4062 -1.42188 27.6875 -1.42188
Q18.2656 -1.42188 13.375 4.4375
Q8.5 10.2969 8.5 21.5781" id="BitstreamVeraSans-Roman-75"/>
      <path d="
M34.2812 27.4844
Q23.3906 27.4844 19.1875 25
Q14.9844 22.5156 14.9844 16.5
Q14.9844 11.7188 18.1406 8.90625
Q21.2969 6.10938 26.7031 6.10938
Q34.1875 6.10938 38.7031 11.4062
Q43.2188 16.7031 43.2188 25.4844
L43.2188 27.4844
z

M52.2031 31.2031
L52.2031 0
L43.2188 0
L43.2188 8.29688
Q40.1406 3.32812 35.5469 0.953125
Q30.9531 -1.42188 24.3125 -1.42188
Q15.9219 -1.42188 10.9531 3.29688
Q6 8.01562 6 15.9219
Q6 25.1406 12.1719 29.8281
Q18.3594 34.5156 30.6094 34.5156
L43.2188 34.5156
L43.2188 35.4062
Q43.2188 41.6094 39.1406 45
Q35.0625 48.3906 27.6875 48.3906
Q23 48.3906 18.5469 47.2656
Q14.1094 46.1406 10.0156 43.8906
L10.0156 52.2031
Q14.9375 54.1094 19.5781 55.0469
Q24.2188 56 28.6094 56
Q40.4844 56 46.3438 49.8438
Q52.2031 43.7031 52.2031 31.2031" id="BitstreamVeraSans-Roman-61"/>
      <path d="
M37.1094 75.9844
L37.1094 68.5
L28.5156 68.5
Q23.6875 68.5 21.7969 66.5469
Q19.9219 64.5938 19.9219 59.5156
L19.9219 54.6875
L34.7188 54.6875
L34.7188 47.7031
L19.9219 47.7031
L19.9219 0
L10.8906 0
L10.8906 47.7031
L2.29688 47.7031
L2.29688 54.6875
L10.8906 54.6875
L10.8906 58.5
Q10.8906 67.625 15.1406 71.7969
Q19.3906 75.9844 28.6094 75.9844
z
" id="BitstreamVeraSans-Roman-66"/>
      <path d="
M9.42188 54.6875
L18.4062 54.6875
L18.4062 0
L9.42188 0
z

M9.42188 75.9844
L18.4062 75.9844
L18.4062 64.5938
L9.42188 64.5938
z
" id="BitstreamVeraSans-Roman-69"/>
      <path d="
M45.4062 27.9844
Q45.4062 37.75 41.375 43.1094
Q37.3594 48.4844 30.0781 48.4844
Q22.8594 48.4844 18.8281 43.1094
Q14.7969 37.75 14.7969 27.9844
Q14.7969 18.2656 18.8281 12.8906
Q22.8594 7.51562 30.0781 7.51562
Q37.3594 7.51562 41.375 12.8906
Q45.4062 18.2656 45.4062 27.9844
M54.3906 6.78125
Q54.3906 -7.17188 48.1875 -13.9844
Q42 -20.7969 29.2031 -20.7969
Q24.4688 -20.7969 20.2656 -20.0938
Q16.0625 -19.3906 12.1094 -17.9219
L12.1094 -9.1875
Q16.0625 -11.3281 19.9219 -12.3438
Q23.7812 -13.375 27.7812 -13.375
Q36.625 -13.375 41.0156 -8.76562
Q45.4062 -4.15625 45.4062 5.17188
L45.4062 9.625
Q42.625 4.78125 38.2812 2.39062
Q33.9375 0 27.875 0
Q17.8281 0 11.6719 7.65625
Q5.51562 15.3281 5.51562 27.9844
Q5.51562 40.6719 11.6719 48.3281
Q17.8281 56 27.875 56
Q33.9375 56 38.2812 53.6094
Q42.625 51.2188 45.4062 46.3906
L45.4062 54.6875
L54.3906 54.6875
z
" id="BitstreamVeraSans-Roman-67"/>
      <path d="
M64.4062 67.2812
L64.4062 56.8906
Q59.4219 61.5312 53.7812 63.8125
Q48.1406 66.1094 41.7969 66.1094
Q29.2969 66.1094 22.6562 58.4688
Q16.0156 50.8281 16.0156 36.375
Q16.0156 21.9688 22.6562 14.3281
Q29.2969 6.6875 41.7969 6.6875
Q48.1406 6.6875 53.7812 8.98438
Q59.4219 11.2812 64.4062 15.9219
L64.4062 5.60938
Q59.2344 2.09375 53.4375 0.328125
Q47.6562 -1.42188 41.2188 -1.42188
Q24.6562 -1.42188 15.125 8.70312
Q5.60938 18.8438 5.60938 36.375
Q5.60938 53.9531 15.125 64.0781
Q24.6562 74.2188 41.2188 74.2188
Q47.75 74.2188 53.5312 72.4844
Q59.3281 70.75 64.4062 67.2812" id="BitstreamVeraSans-Roman-43"/>
      <path d="
M34.1875 63.1875
L20.7969 26.9062
L47.6094 26.9062
z

M28.6094 72.9062
L39.7969 72.9062
L67.5781 0
L57.3281 0
L50.6875 18.7031
L17.8281 18.7031
L11.1875 0
L0.78125 0
z
" id="BitstreamVeraSans-Roman-41"/>
      <path d="
M9.42188 75.9844
L18.4062 75.9844
L18.4062 0
L9.42188 0
z
" id="BitstreamVeraSans-Roman-6c"/>
      <path d="
M52 44.1875
Q55.375 50.25 60.0625 53.125
Q64.75 56 71.0938 56
Q79.6406 56 84.2812 50.0156
Q88.9219 44.0469 88.9219 33.0156
L88.9219 0
L79.8906 0
L79.8906 32.7188
Q79.8906 40.5781 77.0938 44.375
Q74.3125 48.1875 68.6094 48.1875
Q61.625 48.1875 57.5625 43.5469
Q53.5156 38.9219 53.5156 30.9062
L53.5156 0
L44.4844 0
L44.4844 32.7188
Q44.4844 40.625 41.7031 44.4062
Q38.9219 48.1875 33.1094 48.1875
Q26.2188 48.1875 22.1562 43.5312
Q18.1094 38.875 18.1094 30.9062
L18.1094 0
L9.07812 0
L9.07812 54.6875
L18.1094 54.6875
L18.1094 46.1875
Q21.1875 51.2188 25.4844 53.6094
Q29.7812 56 35.6875 56
Q41.6562 56 45.8281 52.9688
Q50 49.9531 52 44.1875" id="BitstreamVeraSans-Roman-6d"/>
      <path d="
M54.8906 33.0156
L54.8906 0
L45.9062 0
L45.9062 32.7188
Q45.9062 40.4844 42.875 44.3281
Q39.8438 48.1875 33.7969 48.1875
Q26.5156 48.1875 22.3125 43.5469
Q18.1094 38.9219 18.1094 30.9062
L18.1094 0
L9.07812 0
L9.07812 54.6875
L18.1094 54.6875
L18.1094 46.1875
Q21.3438 51.125 25.7031 53.5625
Q30.0781 56 35.7969 56
Q45.2188 56 50.0469 50.1719
Q54.8906 44.3438 54.8906 33.0156" id="BitstreamVeraSans-Roman-6e"/>
      <path d="
M30.6094 48.3906
Q23.3906 48.3906 19.1875 42.75
Q14.9844 37.1094 14.9844 27.2969
Q14.9844 17.4844 19.1562 11.8438
Q23.3438 6.20312 30.6094 6.20312
Q37.7969 6.20312 41.9844 11.8594
Q46.1875 17.5312 46.1875 27.2969
Q46.1875 37.0156 41.9844 42.7031
Q37.7969 48.3906 30.6094 48.3906
M30.6094 56
Q42.3281 56 49.0156 48.375
Q55.7188 40.7656 55.7188 27.2969
Q55.7188 13.875 49.0156 6.21875
Q42.3281 -1.42188 30.6094 -1.42188
Q18.8438 -1.42188 12.1719 6.21875
Q5.51562 13.875 5.51562 27.2969
Q5.51562 40.7656 12.1719 48.375
Q18.8438 56 30.6094 56" id="BitstreamVeraSans-Roman-6f"/>
      <path d="
M9.8125 72.9062
L23.0938 72.9062
L55.4219 11.9219
L55.4219 72.9062
L64.9844 72.9062
L64.9844 0
L51.7031 0
L19.3906 60.9844
L19.3906 0
L9.8125 0
z
" id="BitstreamVeraSans-Roman-4e"/>
      <path id="BitstreamVeraSans-Roman-20"/>
      <path d="
M2.98438 54.6875
L12.5 54.6875
L29.5938 8.79688
L46.6875 54.6875
L56.2031 54.6875
L35.6875 0
L23.4844 0
z
" id="BitstreamVeraSans-Roman-76"/>
     </defs>
     <g transform="translate(339.0215625 417.721875)scale(0.12 -0.12)">
      <use xlink:href="#BitstreamVeraSans-Roman-4e"/>
      <use x="74.8046875" xlink:href="#BitstreamVeraSans-Roman-75"/>
      <use x="138.18359375" xlink:href="#BitstreamVeraSans-Roman-6d"/>
      <use x="235.595703125" xlink:href="#BitstreamVeraSans-Roman-62"/>
      <use x="299.072265625" xlink:href="#BitstreamVeraSans-Roman-65"/>
      <use x="360.595703125" xlink:href="#BitstreamVeraSans-Roman-72"/>
      <use x="401.708984375" xlink:href="#BitstreamVeraSans-Roman-20"/>
      <use x="433.49609375" xlink:href="#BitstreamVeraSans-Roman-6f"/>
      <use x="494.677734375" xlink:href="#BitstreamVeraSans-Roman-66"/>
      <use x="529.8828125" xlink:href="#BitstreamVeraSans-Roman-20"/>
      <use x="561.669921875" xlink:href="#BitstreamVeraSans-Roman-41"/>
      <use x="624.203125" xlink:href="#BitstreamVeraSans-Roman-76"/>
      <use x="683.3828125" xlink:href="#BitstreamVeraSans-Roman-65"/>
      <use x="744.90625" xlink:href="#BitstreamVeraSans-Roman-72"/>
      <use x="786.01953125" xlink:href="#BitstreamVeraSans-Roman-61"/>
      <use x="847.298828125" xlink:href="#BitstreamVeraSans-Roman-67"/>
      <use x="910.775390625" xlink:href="#BitstreamVeraSans-Roman-69"/>
      <use x="938.55859375" xlink:href="#BitstreamVeraSans-Roman-6e"/>
      <use x="1001.9375" xlink:href="#BitstreamVeraSans-Roman-67"/>
      <use x="1065.4140625" xlink:href="#BitstreamVeraSans-Roman-20"/>
      <use x="1097.201171875" xlink:href="#BitstreamVeraSans-Roman-43"/>
      <use x="1167.025390625" xlink:href="#BitstreamVeraSans-Roman-6f"/>
      <use x="1228.20703125" xlink:href="#BitstreamVeraSans-Roman-6c"/>
      <use x="1255.990234375" xlink:href="#BitstreamVeraSans-Roman-6c"/>
      <use x="1283.7734375" xlink:href="#BitstreamVeraSans-Roman-75"/>
      <use x="1347.15234375" xlink:href="#BitstreamVeraSans-Roman-64"/>
      <use x="1410.62890625" xlink:href="#BitstreamVeraSans-Roman-65"/>
      <use x="1472.15234375" xlink:href="#BitstreamVeraSans-Roman-72"/>
      <use x="1513.265625" xlink:href="#BitstreamVeraSans-Roman-73"/>
     </g>
    </g>
   </g>
   <g id="matplotlib.axis_2">
    <g id="ytick_1">
     <g id="line2d_19">
      <defs>
       <path d="
M0 0
L4 0" id="md7965d1ba0" style="stroke:#000000;stroke-width:0.5;"/>
      </defs>
      <g>
       <use style="stroke:#000000;stroke-width:0.5;" x="105.525" xlink:href="#md7965d1ba0" y="387.99"/>
      </g>
     </g>
     <g id="line2d_20">
      <defs>
       <path d="
M0 0
L-4 0" id="md9a1c1a7cd" style="stroke:#000000;stroke-width:0.5;"/>
      </defs>
      <g>
       <use style="stroke:#000000;stroke-width:0.5;" x="759.78" xlink:href="#md9a1c1a7cd" y="387.99"/>
      </g>
     </g>
     <g id="text_8">
      <!-- 0.0 -->
      <defs>
       <path d="
M10.6875 12.4062
L21 12.4062
L21 0
L10.6875 0
z
" id="BitstreamVeraSans-Roman-2e"/>
      </defs>
      <g transform="translate(84.029375 391.30125)scale(0.12 -0.12)">
       <use xlink:href="#BitstreamVeraSans-Roman-30"/>
       <use x="63.623046875" xlink:href="#BitstreamVeraSans-Roman-2e"/>
       <use x="95.41015625" xlink:href="#BitstreamVeraSans-Roman-30"/>
      </g>
     </g>
    </g>
    <g id="ytick_2">
     <g id="line2d_21">
      <g>
       <use style="stroke:#000000;stroke-width:0.5;" x="105.525" xlink:href="#md7965d1ba0" y="319.014"/>
      </g>
     </g>
     <g id="line2d_22">
      <g>
       <use style="stroke:#000000;stroke-width:0.5;" x="759.78" xlink:href="#md9a1c1a7cd" y="319.014"/>
      </g>
     </g>
     <g id="text_9">
      <!-- 0.5 -->
      <defs>
       <path d="
M10.7969 72.9062
L49.5156 72.9062
L49.5156 64.5938
L19.8281 64.5938
L19.8281 46.7344
Q21.9688 47.4688 24.1094 47.8281
Q26.2656 48.1875 28.4219 48.1875
Q40.625 48.1875 47.75 41.5
Q54.8906 34.8125 54.8906 23.3906
Q54.8906 11.625 47.5625 5.09375
Q40.2344 -1.42188 26.9062 -1.42188
Q22.3125 -1.42188 17.5469 -0.640625
Q12.7969 0.140625 7.71875 1.70312
L7.71875 11.625
Q12.1094 9.23438 16.7969 8.0625
Q21.4844 6.89062 26.7031 6.89062
Q35.1562 6.89062 40.0781 11.3281
Q45.0156 15.7656 45.0156 23.3906
Q45.0156 31 40.0781 35.4375
Q35.1562 39.8906 26.7031 39.8906
Q22.75 39.8906 18.8125 39.0156
Q14.8906 38.1406 10.7969 36.2812
z
" id="BitstreamVeraSans-Roman-35"/>
      </defs>
      <g transform="translate(84.280625 322.32525)scale(0.12 -0.12)">
       <use xlink:href="#BitstreamVeraSans-Roman-30"/>
       <use x="63.623046875" xlink:href="#BitstreamVeraSans-Roman-2e"/>
       <use x="95.41015625" xlink:href="#BitstreamVeraSans-Roman-35"/>
      </g>
     </g>
    </g>
    <g id="ytick_3">
     <g id="line2d_23">
      <g>
       <use style="stroke:#000000;stroke-width:0.5;" x="105.525" xlink:href="#md7965d1ba0" y="250.038"/>
      </g>
     </g>
     <g id="line2d_24">
      <g>
       <use style="stroke:#000000;stroke-width:0.5;" x="759.78" xlink:href="#md9a1c1a7cd" y="250.038"/>
      </g>
     </g>
     <g id="text_10">
      <!-- 1.0 -->
      <g transform="translate(84.55625 253.34925)scale(0.12 -0.12)">
       <use xlink:href="#BitstreamVeraSans-Roman-31"/>
       <use x="63.623046875" xlink:href="#BitstreamVeraSans-Roman-2e"/>
       <use x="95.41015625" xlink:href="#BitstreamVeraSans-Roman-30"/>
      </g>
     </g>
    </g>
    <g id="ytick_4">
     <g id="line2d_25">
      <g>
       <use style="stroke:#000000;stroke-width:0.5;" x="105.525" xlink:href="#md7965d1ba0" y="181.062"/>
      </g>
     </g>
     <g id="line2d_26">
      <g>
       <use style="stroke:#000000;stroke-width:0.5;" x="759.78" xlink:href="#md9a1c1a7cd" y="181.062"/>
      </g>
     </g>
     <g id="text_11">
      <!-- 1.5 -->
      <g transform="translate(84.8075 184.37325)scale(0.12 -0.12)">
       <use xlink:href="#BitstreamVeraSans-Roman-31"/>
       <use x="63.623046875" xlink:href="#BitstreamVeraSans-Roman-2e"/>
       <use x="95.41015625" xlink:href="#BitstreamVeraSans-Roman-35"/>
      </g>
     </g>
    </g>
    <g id="ytick_5">
     <g id="line2d_27">
      <g>
       <use style="stroke:#000000;stroke-width:0.5;" x="105.525" xlink:href="#md7965d1ba0" y="112.086"/>
      </g>
     </g>
     <g id="line2d_28">
      <g>
       <use style="stroke:#000000;stroke-width:0.5;" x="759.78" xlink:href="#md9a1c1a7cd" y="112.086"/>
      </g>
     </g>
     <g id="text_12">
      <!-- 2.0 -->
      <g transform="translate(84.1175 115.39725)scale(0.12 -0.12)">
       <use xlink:href="#BitstreamVeraSans-Roman-32"/>
       <use x="63.623046875" xlink:href="#BitstreamVeraSans-Roman-2e"/>
       <use x="95.41015625" xlink:href="#BitstreamVeraSans-Roman-30"/>
      </g>
     </g>
    </g>
    <g id="ytick_6">
     <g id="line2d_29">
      <g>
       <use style="stroke:#000000;stroke-width:0.5;" x="105.525" xlink:href="#md7965d1ba0" y="43.11"/>
      </g>
     </g>
     <g id="line2d_30">
      <g>
       <use style="stroke:#000000;stroke-width:0.5;" x="759.78" xlink:href="#md9a1c1a7cd" y="43.11"/>
      </g>
     </g>
     <g id="text_13">
      <!-- 2.5 -->
      <g transform="translate(84.36875 46.42125)scale(0.12 -0.12)">
       <use xlink:href="#BitstreamVeraSans-Roman-32"/>
       <use x="63.623046875" xlink:href="#BitstreamVeraSans-Roman-2e"/>
       <use x="95.41015625" xlink:href="#BitstreamVeraSans-Roman-35"/>
      </g>
     </g>
    </g>
    <g id="text_14">
     <!-- RMS Error -->
     <defs>
      <path d="
M9.8125 72.9062
L24.5156 72.9062
L43.1094 23.2969
L61.8125 72.9062
L76.5156 72.9062
L76.5156 0
L66.8906 0
L66.8906 64.0156
L48.0938 14.0156
L38.1875 14.0156
L19.3906 64.0156
L19.3906 0
L9.8125 0
z
" id="BitstreamVeraSans-Roman-4d"/>
      <path d="
M44.3906 34.1875
Q47.5625 33.1094 50.5625 29.5938
Q53.5625 26.0781 56.5938 19.9219
L66.6094 0
L56 0
L46.6875 18.7031
Q43.0625 26.0312 39.6719 28.4219
Q36.2812 30.8125 30.4219 30.8125
L19.6719 30.8125
L19.6719 0
L9.8125 0
L9.8125 72.9062
L32.0781 72.9062
Q44.5781 72.9062 50.7344 67.6719
Q56.8906 62.4531 56.8906 51.9062
Q56.8906 45.0156 53.6875 40.4688
Q50.4844 35.9375 44.3906 34.1875
M19.6719 64.7969
L19.6719 38.9219
L32.0781 38.9219
Q39.2031 38.9219 42.8438 42.2188
Q46.4844 45.5156 46.4844 51.9062
Q46.4844 58.2969 42.8438 61.5469
Q39.2031 64.7969 32.0781 64.7969
z
" id="BitstreamVeraSans-Roman-52"/>
      <path d="
M53.5156 70.5156
L53.5156 60.8906
Q47.9062 63.5781 42.9219 64.8906
Q37.9375 66.2188 33.2969 66.2188
Q25.25 66.2188 20.875 63.0938
Q16.5 59.9688 16.5 54.2031
Q16.5 49.3594 19.4062 46.8906
Q22.3125 44.4375 30.4219 42.9219
L36.375 41.7031
Q47.4062 39.5938 52.6562 34.2969
Q57.9062 29 57.9062 20.125
Q57.9062 9.51562 50.7969 4.04688
Q43.7031 -1.42188 29.9844 -1.42188
Q24.8125 -1.42188 18.9688 -0.25
Q13.1406 0.921875 6.89062 3.21875
L6.89062 13.375
Q12.8906 10.0156 18.6562 8.29688
Q24.4219 6.59375 29.9844 6.59375
Q38.4219 6.59375 43.0156 9.90625
Q47.6094 13.2344 47.6094 19.3906
Q47.6094 24.75 44.3125 27.7812
Q41.0156 30.8125 33.5 32.3281
L27.4844 33.5
Q16.4531 35.6875 11.5156 40.375
Q6.59375 45.0625 6.59375 53.4219
Q6.59375 63.0938 13.4062 68.6562
Q20.2188 74.2188 32.1719 74.2188
Q37.3125 74.2188 42.625 73.2812
Q47.9531 72.3594 53.5156 70.5156" id="BitstreamVeraSans-Roman-53"/>
      <path d="
M9.8125 72.9062
L55.9062 72.9062
L55.9062 64.5938
L19.6719 64.5938
L19.6719 43.0156
L54.3906 43.0156
L54.3906 34.7188
L19.6719 34.7188
L19.6719 8.29688
L56.7812 8.29688
L56.7812 0
L9.8125 0
z
" id="BitstreamVeraSans-Roman-45"/>
     </defs>
     <g transform="translate(76.53375 245.2340625)rotate(-90.0)scale(0.12 -0.12)">
      <use xlink:href="#BitstreamVeraSans-Roman-52"/>
      <use x="69.482421875" xlink:href="#BitstreamVeraSans-Roman-4d"/>
      <use x="155.76171875" xlink:href="#BitstreamVeraSans-Roman-53"/>
      <use x="219.23828125" xlink:href="#BitstreamVeraSans-Roman-20"/>
      <use x="251.025390625" xlink:href="#BitstreamVeraSans-Roman-45"/>
      <use x="314.208984375" xlink:href="#BitstreamVeraSans-Roman-72"/>
      <use x="353.572265625" xlink:href="#BitstreamVeraSans-Roman-72"/>
      <use x="392.435546875" xlink:href="#BitstreamVeraSans-Roman-6f"/>
      <use x="453.6171875" xlink:href="#BitstreamVeraSans-Roman-72"/>
     </g>
    </g>
   </g>
   <g id="patch_3">
    <path d="
M105.525 43.11
L759.78 43.11" style="fill:none;stroke:#000000;"/>
   </g>
   <g id="patch_4">
    <path d="
M105.525 387.99
L105.525 43.11" style="fill:none;stroke:#000000;"/>
   </g>
   <g id="patch_5">
    <path d="
M759.78 387.99
L759.78 43.11" style="fill:none;stroke:#000000;"/>
   </g>
   <g id="patch_6">
    <path d="
M105.525 387.99
L759.78 387.99" style="fill:none;stroke:#000000;"/>
   </g>
   <g id="text_15">
    <!-- sensors=30, colluders=10, colluder bias=7, times=1, repeats=100, randseed=0.522783 -->
    <defs>
     <path d="
M48.7812 52.5938
L48.7812 44.1875
Q44.9688 46.2969 41.1406 47.3438
Q37.3125 48.3906 33.4062 48.3906
Q24.6562 48.3906 19.8125 42.8438
Q14.9844 37.3125 14.9844 27.2969
Q14.9844 17.2812 19.8125 11.7344
Q24.6562 6.20312 33.4062 6.20312
Q37.3125 6.20312 41.1406 7.25
Q44.9688 8.29688 48.7812 10.4062
L48.7812 2.09375
Q45.0156 0.34375 40.9844 -0.53125
Q36.9688 -1.42188 32.4219 -1.42188
Q20.0625 -1.42188 12.7812 6.34375
Q5.51562 14.1094 5.51562 27.2969
Q5.51562 40.6719 12.8594 48.3281
Q20.2188 56 33.0156 56
Q37.1562 56 41.1094 55.1406
Q45.0625 54.2969 48.7812 52.5938" id="BitstreamVeraSans-Roman-63"/>
     <path d="
M18.3125 70.2188
L18.3125 54.6875
L36.8125 54.6875
L36.8125 47.7031
L18.3125 47.7031
L18.3125 18.0156
Q18.3125 11.3281 20.1406 9.42188
Q21.9688 7.51562 27.5938 7.51562
L36.8125 7.51562
L36.8125 0
L27.5938 0
Q17.1875 0 13.2344 3.875
Q9.28125 7.76562 9.28125 18.0156
L9.28125 47.7031
L2.6875 47.7031
L2.6875 54.6875
L9.28125 54.6875
L9.28125 70.2188
z
" id="BitstreamVeraSans-Roman-74"/>
     <path d="
M8.20312 72.9062
L55.0781 72.9062
L55.0781 68.7031
L28.6094 0
L18.3125 0
L43.2188 64.5938
L8.20312 64.5938
z
" id="BitstreamVeraSans-Roman-37"/>
     <path d="
M10.5938 45.4062
L73.1875 45.4062
L73.1875 37.2031
L10.5938 37.2031
z

M10.5938 25.4844
L73.1875 25.4844
L73.1875 17.1875
L10.5938 17.1875
z
" id="BitstreamVeraSans-Roman-3d"/>
     <path d="
M40.5781 39.3125
Q47.6562 37.7969 51.625 33
Q55.6094 28.2188 55.6094 21.1875
Q55.6094 10.4062 48.1875 4.48438
Q40.7656 -1.42188 27.0938 -1.42188
Q22.5156 -1.42188 17.6562 -0.515625
Q12.7969 0.390625 7.625 2.20312
L7.625 11.7188
Q11.7188 9.32812 16.5938 8.10938
Q21.4844 6.89062 26.8125 6.89062
Q36.0781 6.89062 40.9375 10.5469
Q45.7969 14.2031 45.7969 21.1875
Q45.7969 27.6406 41.2812 31.2656
Q36.7656 34.9062 28.7188 34.9062
L20.2188 34.9062
L20.2188 43.0156
L29.1094 43.0156
Q36.375 43.0156 40.2344 45.9219
Q44.0938 48.8281 44.0938 54.2969
Q44.0938 59.9062 40.1094 62.9062
Q36.1406 65.9219 28.7188 65.9219
Q24.6562 65.9219 20.0156 65.0312
Q15.375 64.1562 9.8125 62.3125
L9.8125 71.0938
Q15.4375 72.6562 20.3438 73.4375
Q25.25 74.2188 29.5938 74.2188
Q40.8281 74.2188 47.3594 69.1094
Q53.9062 64.0156 53.9062 55.3281
Q53.9062 49.2656 50.4375 45.0938
Q46.9688 40.9219 40.5781 39.3125" id="BitstreamVeraSans-Roman-33"/>
     <path d="
M18.1094 8.20312
L18.1094 -20.7969
L9.07812 -20.7969
L9.07812 54.6875
L18.1094 54.6875
L18.1094 46.3906
Q20.9531 51.2656 25.2656 53.625
Q29.5938 56 35.5938 56
Q45.5625 56 51.7812 48.0938
Q58.0156 40.1875 58.0156 27.2969
Q58.0156 14.4062 51.7812 6.48438
Q45.5625 -1.42188 35.5938 -1.42188
Q29.5938 -1.42188 25.2656 0.953125
Q20.9531 3.32812 18.1094 8.20312
M48.6875 27.2969
Q48.6875 37.2031 44.6094 42.8438
Q40.5312 48.4844 33.4062 48.4844
Q26.2656 48.4844 22.1875 42.8438
Q18.1094 37.2031 18.1094 27.2969
Q18.1094 17.3906 22.1875 11.75
Q26.2656 6.10938 33.4062 6.10938
Q40.5312 6.10938 44.6094 11.75
Q48.6875 17.3906 48.6875 27.2969" id="BitstreamVeraSans-Roman-70"/>
     <path d="
M11.7188 12.4062
L22.0156 12.4062
L22.0156 4
L14.0156 -11.625
L7.71875 -11.625
L11.7188 4
z
" id="BitstreamVeraSans-Roman-2c"/>
    </defs>
    <g transform="translate(111.48075 38.11)scale(0.144 -0.144)">
     <use xlink:href="#BitstreamVeraSans-Roman-73"/>
     <use x="52.099609375" xlink:href="#BitstreamVeraSans-Roman-65"/>
     <use x="113.623046875" xlink:href="#BitstreamVeraSans-Roman-6e"/>
     <use x="177.001953125" xlink:href="#BitstreamVeraSans-Roman-73"/>
     <use x="229.1015625" xlink:href="#BitstreamVeraSans-Roman-6f"/>
     <use x="290.283203125" xlink:href="#BitstreamVeraSans-Roman-72"/>
     <use x="331.396484375" xlink:href="#BitstreamVeraSans-Roman-73"/>
     <use x="383.49609375" xlink:href="#BitstreamVeraSans-Roman-3d"/>
     <use x="467.28515625" xlink:href="#BitstreamVeraSans-Roman-33"/>
     <use x="530.908203125" xlink:href="#BitstreamVeraSans-Roman-30"/>
     <use x="594.53125" xlink:href="#BitstreamVeraSans-Roman-2c"/>
     <use x="626.318359375" xlink:href="#BitstreamVeraSans-Roman-20"/>
     <use x="658.10546875" xlink:href="#BitstreamVeraSans-Roman-63"/>
     <use x="713.0859375" xlink:href="#BitstreamVeraSans-Roman-6f"/>
     <use x="774.267578125" xlink:href="#BitstreamVeraSans-Roman-6c"/>
     <use x="802.05078125" xlink:href="#BitstreamVeraSans-Roman-6c"/>
     <use x="829.833984375" xlink:href="#BitstreamVeraSans-Roman-75"/>
     <use x="893.212890625" xlink:href="#BitstreamVeraSans-Roman-64"/>
     <use x="956.689453125" xlink:href="#BitstreamVeraSans-Roman-65"/>
     <use x="1018.212890625" xlink:href="#BitstreamVeraSans-Roman-72"/>
     <use x="1059.326171875" xlink:href="#BitstreamVeraSans-Roman-73"/>
     <use x="1111.42578125" xlink:href="#BitstreamVeraSans-Roman-3d"/>
     <use x="1195.21484375" xlink:href="#BitstreamVeraSans-Roman-31"/>
     <use x="1258.837890625" xlink:href="#BitstreamVeraSans-Roman-30"/>
     <use x="1322.4609375" xlink:href="#BitstreamVeraSans-Roman-2c"/>
     <use x="1354.248046875" xlink:href="#BitstreamVeraSans-Roman-20"/>
     <use x="1386.03515625" xlink:href="#BitstreamVeraSans-Roman-63"/>
     <use x="1441.015625" xlink:href="#BitstreamVeraSans-Roman-6f"/>
     <use x="1502.197265625" xlink:href="#BitstreamVeraSans-Roman-6c"/>
     <use x="1529.98046875" xlink:href="#BitstreamVeraSans-Roman-6c"/>
     <use x="1557.763671875" xlink:href="#BitstreamVeraSans-Roman-75"/>
     <use x="1621.142578125" xlink:href="#BitstreamVeraSans-Roman-64"/>
     <use x="1684.619140625" xlink:href="#BitstreamVeraSans-Roman-65"/>
     <use x="1746.142578125" xlink:href="#BitstreamVeraSans-Roman-72"/>
     <use x="1787.255859375" xlink:href="#BitstreamVeraSans-Roman-20"/>
     <use x="1819.04296875" xlink:href="#BitstreamVeraSans-Roman-62"/>
     <use x="1882.51953125" xlink:href="#BitstreamVeraSans-Roman-69"/>
     <use x="1910.302734375" xlink:href="#BitstreamVeraSans-Roman-61"/>
     <use x="1971.58203125" xlink:href="#BitstreamVeraSans-Roman-73"/>
     <use x="2023.681640625" xlink:href="#BitstreamVeraSans-Roman-3d"/>
     <use x="2107.470703125" xlink:href="#BitstreamVeraSans-Roman-37"/>
     <use x="2171.09375" xlink:href="#BitstreamVeraSans-Roman-2c"/>
     <use x="2202.880859375" xlink:href="#BitstreamVeraSans-Roman-20"/>
     <use x="2234.66796875" xlink:href="#BitstreamVeraSans-Roman-74"/>
     <use x="2273.876953125" xlink:href="#BitstreamVeraSans-Roman-69"/>
     <use x="2301.66015625" xlink:href="#BitstreamVeraSans-Roman-6d"/>
     <use x="2399.072265625" xlink:href="#BitstreamVeraSans-Roman-65"/>
     <use x="2460.595703125" xlink:href="#BitstreamVeraSans-Roman-73"/>
     <use x="2512.6953125" xlink:href="#BitstreamVeraSans-Roman-3d"/>
     <use x="2596.484375" xlink:href="#BitstreamVeraSans-Roman-31"/>
     <use x="2660.107421875" xlink:href="#BitstreamVeraSans-Roman-2c"/>
     <use x="2691.89453125" xlink:href="#BitstreamVeraSans-Roman-20"/>
     <use x="2723.681640625" xlink:href="#BitstreamVeraSans-Roman-72"/>
     <use x="2762.544921875" xlink:href="#BitstreamVeraSans-Roman-65"/>
     <use x="2824.068359375" xlink:href="#BitstreamVeraSans-Roman-70"/>
     <use x="2887.544921875" xlink:href="#BitstreamVeraSans-Roman-65"/>
     <use x="2949.068359375" xlink:href="#BitstreamVeraSans-Roman-61"/>
     <use x="3010.34765625" xlink:href="#BitstreamVeraSans-Roman-74"/>
     <use x="3049.556640625" xlink:href="#BitstreamVeraSans-Roman-73"/>
     <use x="3101.65625" xlink:href="#BitstreamVeraSans-Roman-3d"/>
     <use x="3185.4453125" xlink:href="#BitstreamVeraSans-Roman-31"/>
     <use x="3249.068359375" xlink:href="#BitstreamVeraSans-Roman-30"/>
     <use x="3312.69140625" xlink:href="#BitstreamVeraSans-Roman-30"/>
     <use x="3376.314453125" xlink:href="#BitstreamVeraSans-Roman-2c"/>
     <use x="3408.1015625" xlink:href="#BitstreamVeraSans-Roman-20"/>
     <use x="3439.888671875" xlink:href="#BitstreamVeraSans-Roman-72"/>
     <use x="3481.001953125" xlink:href="#BitstreamVeraSans-Roman-61"/>
     <use x="3542.28125" xlink:href="#BitstreamVeraSans-Roman-6e"/>
     <use x="3605.66015625" xlink:href="#BitstreamVeraSans-Roman-64"/>
     <use x="3669.13671875" xlink:href="#BitstreamVeraSans-Roman-73"/>
     <use x="3721.236328125" xlink:href="#BitstreamVeraSans-Roman-65"/>
     <use x="3782.759765625" xlink:href="#BitstreamVeraSans-Roman-65"/>
     <use x="3844.283203125" xlink:href="#BitstreamVeraSans-Roman-64"/>
     <use x="3907.759765625" xlink:href="#BitstreamVeraSans-Roman-3d"/>
     <use x="3991.548828125" xlink:href="#BitstreamVeraSans-Roman-30"/>
     <use x="4055.171875" xlink:href="#BitstreamVeraSans-Roman-2e"/>
     <use x="4086.958984375" xlink:href="#BitstreamVeraSans-Roman-35"/>
     <use x="4150.58203125" xlink:href="#BitstreamVeraSans-Roman-32"/>
     <use x="4214.205078125" xlink:href="#BitstreamVeraSans-Roman-32"/>
     <use x="4277.828125" xlink:href="#BitstreamVeraSans-Roman-37"/>
     <use x="4341.451171875" xlink:href="#BitstreamVeraSans-Roman-38"/>
     <use x="4405.07421875" xlink:href="#BitstreamVeraSans-Roman-33"/>
    </g>
   </g>
   <g id="legend_1">
    <g id="patch_7">
     <path d="
M112.725 96.903
L247.088 96.903
L247.088 50.31
L112.725 50.31
L112.725 96.903
z
" style="fill:#ffffff;stroke:#000000;"/>
    </g>
    <g id="LineCollection_3">
     <defs>
      <path d="
M122.805 -361.928
L122.805 -376.328" id="C2_0_4c09ec37a4"/>
      <path d="
M142.965 -361.928
L142.965 -376.328" id="C2_1_49e7ef5e41"/>
     </defs>
     <use style="fill:none;stroke:#0000ff;" x="0.0" xlink:href="#C2_0_4c09ec37a4" y="431.1"/>
     <use style="fill:none;stroke:#0000ff;" x="0.0" xlink:href="#C2_1_49e7ef5e41" y="431.1"/>
    </g>
    <g id="line2d_31">
     <g>
      <use style="fill:#0000ff;stroke:#0000ff;stroke-width:0.5;" x="122.805" xlink:href="#m4a5567e584" y="69.17175"/>
      <use style="fill:#0000ff;stroke:#0000ff;stroke-width:0.5;" x="142.965" xlink:href="#m4a5567e584" y="69.17175"/>
     </g>
    </g>
    <g id="line2d_32">
     <g>
      <use style="fill:#0000ff;stroke:#0000ff;stroke-width:0.5;" x="122.805" xlink:href="#m4a5567e584" y="54.77175"/>
      <use style="fill:#0000ff;stroke:#0000ff;stroke-width:0.5;" x="142.965" xlink:href="#m4a5567e584" y="54.77175"/>
     </g>
    </g>
    <g id="line2d_33">
     <path d="
M122.805 61.9718
L142.965 61.9718" style="fill:none;stroke:#0000ff;stroke-linecap:square;"/>
    </g>
    <g id="line2d_34"/>
    <g id="text_16">
     <!-- reciprocal -->
     <g transform="translate(158.805 67.01175)scale(0.144 -0.144)">
      <use xlink:href="#BitstreamVeraSans-Roman-72"/>
      <use x="38.86328125" xlink:href="#BitstreamVeraSans-Roman-65"/>
      <use x="100.38671875" xlink:href="#BitstreamVeraSans-Roman-63"/>
      <use x="155.3671875" xlink:href="#BitstreamVeraSans-Roman-69"/>
      <use x="183.150390625" xlink:href="#BitstreamVeraSans-Roman-70"/>
      <use x="246.626953125" xlink:href="#BitstreamVeraSans-Roman-72"/>
      <use x="285.490234375" xlink:href="#BitstreamVeraSans-Roman-6f"/>
      <use x="346.671875" xlink:href="#BitstreamVeraSans-Roman-63"/>
      <use x="401.65234375" xlink:href="#BitstreamVeraSans-Roman-61"/>
      <use x="462.931640625" xlink:href="#BitstreamVeraSans-Roman-6c"/>
     </g>
    </g>
    <g id="LineCollection_4">
     <defs>
      <path d="
M122.805 -340.792
L122.805 -355.192" id="C3_0_2295f1300c"/>
      <path d="
M142.965 -340.792
L142.965 -355.192" id="C3_1_34abded82d"/>
     </defs>
     <use style="fill:none;stroke:#008000;" x="0.0" xlink:href="#C3_0_2295f1300c" y="431.1"/>
     <use style="fill:none;stroke:#008000;" x="0.0" xlink:href="#C3_1_34abded82d" y="431.1"/>
    </g>
    <g id="line2d_35">
     <g>
      <use style="fill:#008000;stroke:#008000;stroke-width:0.5;" x="122.805" xlink:href="#m37ea37557e" y="90.30825"/>
      <use style="fill:#008000;stroke:#008000;stroke-width:0.5;" x="142.965" xlink:href="#m37ea37557e" y="90.30825"/>
     </g>
    </g>
    <g id="line2d_36">
     <g>
      <use style="fill:#008000;stroke:#008000;stroke-width:0.5;" x="122.805" xlink:href="#m37ea37557e" y="75.90825"/>
      <use style="fill:#008000;stroke:#008000;stroke-width:0.5;" x="142.965" xlink:href="#m37ea37557e" y="75.90825"/>
     </g>
    </g>
    <g id="line2d_37">
     <path d="
M122.805 83.1083
L142.965 83.1083" style="fill:none;stroke:#008000;stroke-linecap:square;"/>
    </g>
    <g id="line2d_38"/>
    <g id="text_17">
     <!-- exponential -->
     <defs>
      <path d="
M54.8906 54.6875
L35.1094 28.0781
L55.9062 0
L45.3125 0
L29.3906 21.4844
L13.4844 0
L2.875 0
L24.125 28.6094
L4.6875 54.6875
L15.2812 54.6875
L29.7812 35.2031
L44.2812 54.6875
z
" id="BitstreamVeraSans-Roman-78"/>
     </defs>
     <g transform="translate(158.805 88.14825)scale(0.144 -0.144)">
      <use xlink:href="#BitstreamVeraSans-Roman-65"/>
      <use x="59.7734375" xlink:href="#BitstreamVeraSans-Roman-78"/>
      <use x="118.953125" xlink:href="#BitstreamVeraSans-Roman-70"/>
      <use x="182.4296875" xlink:href="#BitstreamVeraSans-Roman-6f"/>
      <use x="243.611328125" xlink:href="#BitstreamVeraSans-Roman-6e"/>
      <use x="306.990234375" xlink:href="#BitstreamVeraSans-Roman-65"/>
      <use x="368.513671875" xlink:href="#BitstreamVeraSans-Roman-6e"/>
      <use x="431.892578125" xlink:href="#BitstreamVeraSans-Roman-74"/>
      <use x="471.1015625" xlink:href="#BitstreamVeraSans-Roman-69"/>
      <use x="498.884765625" xlink:href="#BitstreamVeraSans-Roman-61"/>
      <use x="560.1640625" xlink:href="#BitstreamVeraSans-Roman-6c"/>
     </g>
    </g>
   </g>
  </g>
  <g id="text_18">
   <!-- RMS Error by Number of Averaging Colluders -->
   <defs>
    <path d="
M32.1719 -5.07812
Q28.375 -14.8438 24.75 -17.8125
Q21.1406 -20.7969 15.0938 -20.7969
L7.90625 -20.7969
L7.90625 -13.2812
L13.1875 -13.2812
Q16.8906 -13.2812 18.9375 -11.5156
Q21 -9.76562 23.4844 -3.21875
L25.0938 0.875
L2.98438 54.6875
L12.5 54.6875
L29.5938 11.9219
L46.6875 54.6875
L56.2031 54.6875
z
" id="BitstreamVeraSans-Roman-79"/>
   </defs>
   <g transform="translate(287.6109375 17.740125)scale(0.12 -0.12)">
    <use xlink:href="#BitstreamVeraSans-Roman-52"/>
    <use x="69.482421875" xlink:href="#BitstreamVeraSans-Roman-4d"/>
    <use x="155.76171875" xlink:href="#BitstreamVeraSans-Roman-53"/>
    <use x="219.23828125" xlink:href="#BitstreamVeraSans-Roman-20"/>
    <use x="251.025390625" xlink:href="#BitstreamVeraSans-Roman-45"/>
    <use x="314.208984375" xlink:href="#BitstreamVeraSans-Roman-72"/>
    <use x="353.572265625" xlink:href="#BitstreamVeraSans-Roman-72"/>
    <use x="392.435546875" xlink:href="#BitstreamVeraSans-Roman-6f"/>
    <use x="453.6171875" xlink:href="#BitstreamVeraSans-Roman-72"/>
    <use x="494.73046875" xlink:href="#BitstreamVeraSans-Roman-20"/>
    <use x="526.517578125" xlink:href="#BitstreamVeraSans-Roman-62"/>
    <use x="589.994140625" xlink:href="#BitstreamVeraSans-Roman-79"/>
    <use x="649.173828125" xlink:href="#BitstreamVeraSans-Roman-20"/>
    <use x="680.9609375" xlink:href="#BitstreamVeraSans-Roman-4e"/>
    <use x="755.765625" xlink:href="#BitstreamVeraSans-Roman-75"/>
    <use x="819.14453125" xlink:href="#BitstreamVeraSans-Roman-6d"/>
    <use x="916.556640625" xlink:href="#BitstreamVeraSans-Roman-62"/>
    <use x="980.033203125" xlink:href="#BitstreamVeraSans-Roman-65"/>
    <use x="1041.556640625" xlink:href="#BitstreamVeraSans-Roman-72"/>
    <use x="1082.669921875" xlink:href="#BitstreamVeraSans-Roman-20"/>
    <use x="1114.45703125" xlink:href="#BitstreamVeraSans-Roman-6f"/>
    <use x="1175.638671875" xlink:href="#BitstreamVeraSans-Roman-66"/>
    <use x="1210.84375" xlink:href="#BitstreamVeraSans-Roman-20"/>
    <use x="1242.630859375" xlink:href="#BitstreamVeraSans-Roman-41"/>
    <use x="1305.1640625" xlink:href="#BitstreamVeraSans-Roman-76"/>
    <use x="1364.34375" xlink:href="#BitstreamVeraSans-Roman-65"/>
    <use x="1425.8671875" xlink:href="#BitstreamVeraSans-Roman-72"/>
    <use x="1466.98046875" xlink:href="#BitstreamVeraSans-Roman-61"/>
    <use x="1528.259765625" xlink:href="#BitstreamVeraSans-Roman-67"/>
    <use x="1591.736328125" xlink:href="#BitstreamVeraSans-Roman-69"/>
    <use x="1619.51953125" xlink:href="#BitstreamVeraSans-Roman-6e"/>
    <use x="1682.8984375" xlink:href="#BitstreamVeraSans-Roman-67"/>
    <use x="1746.375" xlink:href="#BitstreamVeraSans-Roman-20"/>
    <use x="1778.162109375" xlink:href="#BitstreamVeraSans-Roman-43"/>
    <use x="1847.986328125" xlink:href="#BitstreamVeraSans-Roman-6f"/>
    <use x="1909.16796875" xlink:href="#BitstreamVeraSans-Roman-6c"/>
    <use x="1936.951171875" xlink:href="#BitstreamVeraSans-Roman-6c"/>
    <use x="1964.734375" xlink:href="#BitstreamVeraSans-Roman-75"/>
    <use x="2028.11328125" xlink:href="#BitstreamVeraSans-Roman-64"/>
    <use x="2091.58984375" xlink:href="#BitstreamVeraSans-Roman-65"/>
    <use x="2153.11328125" xlink:href="#BitstreamVeraSans-Roman-72"/>
    <use x="2194.2265625" xlink:href="#BitstreamVeraSans-Roman-73"/>
   </g>
  </g>
 </g>
 <defs>
  <clipPath id="p44e78e75ad">
   <rect height="344.88" width="654.255" x="105.525" y="43.11"/>
  </clipPath>
 </defs>
</svg>
